<svg xmlns="http://www.w3.org/2000/svg"  viewBox="0 0 48 48" width="480px" height="480px"><path fill="#3ddab4" d="M18,6C9.2,6,2,12,2,19.5c0,4.3,2.3,8,6,10.5l-2,6l6.3-3.9C14,32.7,16,33,18,33c8.8,0,16-6,16-13.5 S26.8,6,18,6z"/><path fill="#7decd6" d="M46,29c0-6.1-5.8-11-13-11s-13,4.9-13,11s5.8,11,13,11c1.8,0,3.5-0.3,5-0.8l5,2.8l-1.4-4.8 C44.3,35.2,46,32.3,46,29z"/><path fill="#00b569" d="M20,29c0,1.332,0.291,2.602,0.798,3.781C28.274,31.666,34,26.185,34,19.5 c0-0.495-0.035-0.981-0.096-1.462C33.604,18.021,33.305,18,33,18C25.8,18,20,22.9,20,29z"/><path fill="#fff" d="M14,15c0,1.1-0.9,2-2,2s-2-0.9-2-2s0.9-2,2-2S14,13.9,14,15z M24,13c-1.1,0-2,0.9-2,2s0.9,2,2,2 s2-0.9,2-2S25.1,13,24,13z"/><path fill="#fff" d="M30,26.5c0,0.8-0.7,1.5-1.5,1.5S27,27.3,27,26.5s0.7-1.5,1.5-1.5S30,25.7,30,26.5z M37.5,25 c-0.8,0-1.5,0.7-1.5,1.5s0.7,1.5,1.5,1.5s1.5-0.7,1.5-1.5S38.3,25,37.5,25z"/></svg>